<svg width="20" height="22" viewBox="0 0 20 22" fill="none" xmlns="http://www.w3.org/2000/svg">
  <path fill-rule="evenodd" clip-rule="evenodd" d="M10.0464 0.093506C11.93 0.093497 13.4066 0.0934899 14.578 0.229658C15.7734 0.368615 16.742 0.657273 17.569 1.30192C18.0697 1.69219 18.5099 2.16458 18.8737 2.70174C19.4745 3.58902 19.7436 4.62823 19.8731 5.9108C20 7.1676 20 8.75172 20 10.7726V10.8723C20 12.8932 20 14.4774 19.8731 15.7342C19.7436 17.0168 19.4745 18.056 18.8737 18.9433C18.5099 19.4804 18.0697 19.9528 17.569 20.3431C16.742 20.9877 15.7734 21.2764 14.578 21.4154C13.4066 21.5515 11.9301 21.5515 10.0465 21.5515H9.95357C8.06999 21.5515 6.59343 21.5515 5.42203 21.4154C4.2266 21.2764 3.25801 20.9877 2.43101 20.3431C1.93035 19.9528 1.49006 19.4804 1.12631 18.9433C0.525461 18.056 0.256417 17.0168 0.126901 15.7342C-1.49012e-05 14.4774 -8.23949e-06 12.8932 1.3573e-07 10.8723V10.7727C-8.23949e-06 8.75177 -1.49012e-05 7.16762 0.126901 5.9108C0.256417 4.62823 0.525461 3.58902 1.12631 2.70174C1.49006 2.16458 1.93035 1.69219 2.43101 1.30192C3.25801 0.657273 4.2266 0.368615 5.42203 0.229658C6.59345 0.0934899 8.06996 0.093497 9.95359 0.093506H10.0464ZM15.8188 8.04194C16.0059 7.63272 15.8484 7.13825 15.467 6.93751C15.0856 6.73677 14.6247 6.90579 14.4376 7.31501L12.9398 10.591C12.4756 11.6064 11.1111 11.5568 10.712 10.51C9.81026 8.14518 6.72775 8.03315 5.67896 10.3271L4.18118 13.6031C3.99408 14.0123 4.15161 14.5068 4.53303 14.7075C4.91444 14.9082 5.37532 14.7392 5.56241 14.33L7.06019 11.054C7.52444 10.0386 8.88891 10.0882 9.28804 11.135C10.1897 13.4998 13.2723 13.6119 14.321 11.3179L15.8188 8.04194Z" fill="#A85CF9" />
</svg>