<svg width="20" height="22" viewBox="0 0 20 22" fill="none" xmlns="http://www.w3.org/2000/svg">
<path fill-rule="evenodd" clip-rule="evenodd" d="M10.0464 0.093506C11.93 0.093497 13.4066 0.0934899 14.578 0.229658C15.7734 0.368615 16.742 0.657273 17.569 1.30192C18.0696 1.69219 18.5099 2.16458 18.8737 2.70174C19.4745 3.58902 19.7436 4.62823 19.8731 5.9108C20 7.1676 20 8.75172 20 10.7726V10.8723C20 12.8932 20 14.4774 19.8731 15.7342C19.7436 17.0168 19.4745 18.056 18.8737 18.9433C18.5099 19.4804 18.0696 19.9528 17.569 20.3431C16.742 20.9877 15.7734 21.2764 14.578 21.4154C13.4066 21.5515 11.9301 21.5515 10.0465 21.5515H9.95357C8.06999 21.5515 6.59343 21.5515 5.42203 21.4154C4.2266 21.2764 3.25801 20.9877 2.43101 20.3431C1.93035 19.9528 1.49006 19.4804 1.12631 18.9433C0.525461 18.056 0.256417 17.0168 0.126901 15.7342C-1.49012e-05 14.4774 -8.23949e-06 12.8932 1.3573e-07 10.8723V10.7727C-8.23949e-06 8.75177 -1.49012e-05 7.16762 0.126901 5.9108C0.256417 4.62823 0.525461 3.58902 1.12631 2.70174C1.49006 2.16458 1.93035 1.69219 2.43101 1.30192C3.25801 0.657273 4.2266 0.368615 5.42203 0.229658C6.59345 0.0934899 8.06996 0.093497 9.95359 0.093506H10.0464Z" fill="#A85CF9"/>
 <path d="M8.90615 5.15625C9.27699 5.15625 9.6395 5.04628 9.94784 4.84026C10.2562 4.63423 10.4965 4.34139 10.6384 3.99878C10.7803 3.65617 10.8175 3.27917 10.7451 2.91546C10.6728 2.55174 10.4942 2.21765 10.232 1.95543C9.96975 1.6932 9.63566 1.51463 9.27194 1.44228C8.90823 1.36993 8.53123 1.40706 8.18862 1.54898C7.84601 1.69089 7.55317 1.93121 7.34714 2.23956C7.14111 2.5479 7.03115 2.91041 7.03115 3.28125C7.03115 3.77853 7.22869 4.25545 7.58032 4.60708C7.93195 4.95871 8.40887 5.15625 8.90615 5.15625ZM8.90615 2.34375C9.09157 2.34375 9.27282 2.39873 9.427 2.50175C9.58117 2.60476 9.70133 2.75118 9.77229 2.92248C9.84324 3.09379 9.86181 3.28229 9.82563 3.46415C9.78946 3.64601 9.70017 3.81305 9.56906 3.94416C9.43795 4.07528 9.2709 4.16456 9.08905 4.20074C8.90719 4.23691 8.71869 4.21835 8.54738 4.14739C8.37608 4.07643 8.22966 3.95627 8.12665 3.8021C8.02363 3.64793 7.96865 3.46667 7.96865 3.28125C7.96865 3.03261 8.06742 2.79415 8.24324 2.61834C8.41905 2.44252 8.65751 2.34375 8.90615 2.34375ZM12.8501 8.24297C12.8144 8.25938 12.4112 8.43516 11.6976 8.43516C10.886 8.43516 9.67314 8.20781 8.1415 7.26328C7.90838 7.92508 7.60571 8.56027 7.23857 9.1582C7.89801 9.36121 8.5183 9.67442 9.07314 10.0846C10.1905 10.9365 10.7811 12.1494 10.7811 13.5938C10.7811 13.7181 10.7318 13.8373 10.6439 13.9252C10.5559 14.0131 10.4367 14.0625 10.3124 14.0625C10.1881 14.0625 10.0688 14.0131 9.98094 13.9252C9.89303 13.8373 9.84365 13.7181 9.84365 13.5938C9.84365 11.1504 7.81103 10.2709 6.67138 9.96973C6.63916 10.0107 6.60576 10.0523 6.57236 10.0928C5.42158 11.4873 3.97959 12.2127 2.37529 12.2127C2.19256 12.2135 2.0099 12.2051 1.82802 12.1875C1.7037 12.1751 1.58941 12.1138 1.5103 12.0171C1.43118 11.9204 1.39372 11.7962 1.40615 11.6719C1.41858 11.5476 1.47989 11.4333 1.57659 11.3541C1.67329 11.275 1.79745 11.2376 1.92177 11.25C3.44052 11.4012 4.76181 10.8111 5.84755 9.49219C6.57939 8.60508 7.07802 7.52285 7.32705 6.73828C5.04658 5.41113 3.58994 6.54082 3.57412 6.55313C3.52637 6.5939 3.47091 6.62466 3.41105 6.64359C3.35118 6.66252 3.28812 6.66923 3.22561 6.66332C3.1631 6.65741 3.10241 6.639 3.04715 6.60919C2.99189 6.57938 2.94318 6.53876 2.90392 6.48977C2.86466 6.44077 2.83564 6.38438 2.81859 6.32395C2.80154 6.26352 2.7968 6.20028 2.80466 6.13798C2.81252 6.07569 2.83281 6.01561 2.86434 5.96131C2.89586 5.907 2.93798 5.85959 2.98818 5.82188C3.07607 5.75156 5.16904 4.12266 8.23291 6.20684C10.8972 8.01797 12.4476 7.39688 12.4622 7.38984C12.5184 7.36332 12.5792 7.34823 12.6413 7.34543C12.7033 7.34264 12.7653 7.3522 12.8236 7.37356C12.8819 7.39492 12.9354 7.42766 12.981 7.46987C13.0265 7.51208 13.0632 7.56293 13.089 7.61945C13.1147 7.67597 13.129 7.73704 13.1309 7.79912C13.1328 7.86119 13.1224 7.92303 13.1002 7.98105C13.0781 8.03906 13.0446 8.09209 13.0017 8.13705C12.9589 8.18202 12.9076 8.21802 12.8507 8.24297H12.8501Z" fill="white" />
</svg>