<svg width="18" height="29" viewBox="0 0 18 29" fill="none" xmlns="http://www.w3.org/2000/svg">
  <path d="M18 10.5329C18 15.9071 13.9706 20.2638 9 20.2638C4.02944 20.2638 0 15.9071 0 10.5329C0 5.15861 4.02944 0.80191 9 0.80191C13.9706 0.80191 18 5.15861 18 10.5329Z" fill="#A85CF9" />
  <path d="M16.2 19.2366C14.2893 21.0857 11.7661 22.21 9 22.21C6.23392 22.21 3.71072 21.0857 1.8 19.2366V25.2963C1.8 27.3258 1.8 28.3405 2.39878 28.6301C2.99755 28.9196 3.73034 28.2592 5.19591 26.9384L6.32246 25.9232C7.60016 24.7717 8.23902 24.196 9 24.196C9.76098 24.196 10.3998 24.7717 11.6775 25.9232L12.8041 26.9384C14.2697 28.2592 15.0024 28.9196 15.6012 28.6301C16.2 28.3405 16.2 27.3258 16.2 25.2963V19.2366Z" fill="#A85CF9" />
</svg>