<svg width="21" height="22" viewBox="0 0 21 22" fill="none" xmlns="http://www.w3.org/2000/svg">
  <path fill-rule="evenodd" clip-rule="evenodd" d="M10.75 1.04722C5.22715 1.04722 0.75 5.63726 0.75 11.2994C0.75 16.9615 5.22715 21.5515 10.75 21.5515C16.2728 21.5515 20.75 16.9615 20.75 11.2994C20.75 5.63726 16.2728 1.04722 10.75 1.04722ZM11.4477 7.48461C11.4477 7.08958 11.1353 6.76935 10.75 6.76935C10.3647 6.76935 10.0523 7.08958 10.0523 7.48461V11.4957C10.0523 11.7997 9.93903 12.0922 9.73559 12.3135L8.3819 13.7855C8.11758 14.0729 8.13058 14.5256 8.41093 14.7966C8.69129 15.0676 9.13284 15.0542 9.39717 14.7668L10.7509 13.2948C11.1984 12.8081 11.4477 12.1645 11.4477 11.4957V7.48461Z" fill="#A85CF9" />
  <path d="M5.13932 1.36733C5.4402 1.12055 5.48899 0.670442 5.24828 0.361975C5.00758 0.0535081 4.56854 0.00349572 4.26765 0.250269L1.94207 2.15765C1.64119 2.40442 1.59241 2.85453 1.83311 3.163C2.07382 3.47146 2.51286 3.52148 2.81374 3.2747L5.13932 1.36733Z" fill="#A85CF9" />
  <path d="M17.2323 0.250269C16.9315 0.00349572 16.4924 0.0535081 16.2517 0.361975C16.011 0.670442 16.0598 1.12055 16.3607 1.36733L18.6863 3.2747C18.9871 3.52148 19.4262 3.47146 19.6669 3.163C19.9076 2.85453 19.8588 2.40442 19.5579 2.15765L17.2323 0.250269Z" fill="#A85CF9" />
</svg>