<svg width="20" height="22" viewBox="0 0 20 22" fill="none" xmlns="http://www.w3.org/2000/svg">
<path fill-rule="evenodd" clip-rule="evenodd" d="M10.0464 0.093506C11.93 0.093497 13.4066 0.0934899 14.578 0.229658C15.7734 0.368615 16.742 0.657273 17.569 1.30192C18.0696 1.69219 18.5099 2.16458 18.8737 2.70174C19.4745 3.58902 19.7436 4.62823 19.8731 5.9108C20 7.1676 20 8.75172 20 10.7726V10.8723C20 12.8932 20 14.4774 19.8731 15.7342C19.7436 17.0168 19.4745 18.056 18.8737 18.9433C18.5099 19.4804 18.0696 19.9528 17.569 20.3431C16.742 20.9877 15.7734 21.2764 14.578 21.4154C13.4066 21.5515 11.9301 21.5515 10.0465 21.5515H9.95357C8.06999 21.5515 6.59343 21.5515 5.42203 21.4154C4.2266 21.2764 3.25801 20.9877 2.43101 20.3431C1.93035 19.9528 1.49006 19.4804 1.12631 18.9433C0.525461 18.056 0.256417 17.0168 0.126901 15.7342C-1.49012e-05 14.4774 -8.23949e-06 12.8932 1.3573e-07 10.8723V10.7727C-8.23949e-06 8.75177 -1.49012e-05 7.16762 0.126901 5.9108C0.256417 4.62823 0.525461 3.58902 1.12631 2.70174C1.49006 2.16458 1.93035 1.69219 2.43101 1.30192C3.25801 0.657273 4.2266 0.368615 5.42203 0.229658C6.59345 0.0934899 8.06996 0.093497 9.95359 0.093506H10.0464Z" fill="#A85CF9"/>
<path d="M15.5 6.5H13V6C13 5.60218 12.842 5.22064 12.5607 4.93934C12.2794 4.65804 11.8978 4.5 11.5 4.5H8.5C8.10217 4.5 7.72064 4.65804 7.43934 4.93934C7.15803 5.22064 7 5.60218 7 6V6.5H4.5C4.23478 6.5 3.98043 6.60536 3.79289 6.79289C3.60536 6.98043 3.5 7.23478 3.5 7.5V15.5C3.5 15.7652 3.60536 16.0196 3.79289 16.2071C3.98043 16.3946 4.23478 16.5 4.5 16.5H15.5C15.7652 16.5 16.0196 16.3946 16.2071 16.2071C16.3946 16.0196 16.5 15.7652 16.5 15.5V7.5C16.5 7.23478 16.3946 6.98043 16.2071 6.79289C16.0196 6.60536 15.7652 6.5 15.5 6.5ZM8 6C8 5.86739 8.05268 5.74021 8.14645 5.64645C8.24021 5.55268 8.36739 5.5 8.5 5.5H11.5C11.6326 5.5 11.7598 5.55268 11.8536 5.64645C11.9473 5.74021 12 5.86739 12 6V6.5H8V6ZM15.5 7.5V12H4.5V7.5H15.5ZM15.5 15.5H4.5V13H15.5V15.5Z" fill="white"/>
</svg>